<svg width="40" height="40" viewBox="0 0 40 40" fill="none" xmlns="http://www.w3.org/2000/svg">
  <path d="M40 20C40 8.95514 31.0449 0 20 0C8.95514 0 0 8.95514 0 20C0 29.9817 7.31261 38.2562 16.8753 39.7581V25.7826H11.7958V20H16.8753V15.5927C16.8753 10.5808 19.8622 7.81043 24.4298 7.81043C26.6179 7.81043 28.9073 8.20138 28.9073 8.20138V13.1233H26.3845C23.901 13.1233 23.1247 14.6646 23.1247 16.2481V20H28.6711L27.7851 25.7826H23.1247V39.7581C32.6874 38.259 40 29.9845 40 20Z" fill="white"/>
  <path d="M40 20C40 8.95514 31.0449 0 20 0C8.95514 0 0 8.95514 0 20C0 29.9817 7.31261 38.2562 16.8753 39.7581V25.7826H11.7958V20H16.8753V15.5927C16.8753 10.5808 19.8622 7.81043 24.4298 7.81043C26.6179 7.81043 28.9073 8.20138 28.9073 8.20138V13.1233H26.3845C23.901 13.1233 23.1247 14.6646 23.1247 16.2481V20H28.6711L27.7851 25.7826H23.1247V39.7581C32.6874 38.259 40 29.9845 40 20Z" fill="white"/>
</svg>
